<svg xmlns="http://www.w3.org/2000/svg" xmlns:xlink="http://www.w3.org/1999/xlink" width="500" zoomAndPan="magnify" viewBox="0 0 375 374.999991" height="500" preserveAspectRatio="xMidYMid meet" version="1.0"><defs><clipPath id="f0add4fa72"><path d="M 91 19.089844 L 267 19.089844 L 267 345 L 91 345 Z M 91 19.089844 " clip-rule="nonzero"/></clipPath><clipPath id="c7153d46ce"><path d="M 0.492188 196 L 110 196 L 110 345 L 0.492188 345 Z M 0.492188 196 " clip-rule="nonzero"/></clipPath><clipPath id="3214056f05"><path d="M 253.910156 182.046875 L 283.910156 182.046875 L 283.910156 212 L 253.910156 212 Z M 253.910156 182.046875 " clip-rule="nonzero"/></clipPath></defs><g clip-path="url(#f0add4fa72)"><path fill="#8753ef" d="M 187.992188 100 L 156.304688 155.042969 L 265.636719 344.800781 L 115.054688 344.800781 L 91.832031 304.542969 L 195.929688 304.542969 L 109.824219 155.042969 L 187.992188 19.320312 L 266.75 155.863281 L 243.464844 196.070312 Z M 187.992188 100 " fill-opacity="1" fill-rule="nonzero"/></g><path fill="#c32121" d="M 375.484375 344.800781 L 329.007812 344.800781 L 266.785156 236.820312 L 290.015625 196.410156 Z M 375.484375 344.800781 " fill-opacity="1" fill-rule="nonzero"/><g clip-path="url(#c7153d46ce)"><path fill="#c32121" d="M 109.425781 236.765625 L 46.96875 344.800781 L 0.492188 344.800781 L 86.183594 196.367188 Z M 109.425781 236.765625 " fill-opacity="1" fill-rule="nonzero"/></g><g clip-path="url(#3214056f05)"><path fill="#000000" d="M 268.839844 211.90625 C 268.839844 201.949219 263.863281 196.976562 253.910156 196.976562 C 263.863281 196.976562 268.839844 192 268.839844 182.046875 C 268.839844 192 273.8125 196.976562 283.769531 196.976562 C 273.8125 196.976562 268.839844 201.949219 268.839844 211.90625 Z M 268.839844 211.90625 " fill-opacity="1" fill-rule="nonzero"/></g></svg>