<svg xmlns="http://www.w3.org/2000/svg" xmlns:xlink="http://www.w3.org/1999/xlink" width="500" zoomAndPan="magnify" viewBox="0 0 375 374.999991" height="500" preserveAspectRatio="xMidYMid meet" version="1.0"><defs><clipPath id="5ff149af92"><path d="M 136 73.382812 L 221 73.382812 L 221 231.632812 L 136 231.632812 Z M 136 73.382812 " clip-rule="nonzero"/></clipPath><clipPath id="cff61ebfb2"><path d="M 220 159 L 273.328125 159 L 273.328125 231.632812 L 220 231.632812 Z M 220 159 " clip-rule="nonzero"/></clipPath><clipPath id="34f06efab5"><path d="M 91.828125 159 L 145 159 L 145 231.632812 L 91.828125 231.632812 Z M 91.828125 159 " clip-rule="nonzero"/></clipPath><clipPath id="b8c8a955c2"><path d="M 222.253906 130.558594 L 252.253906 130.558594 L 252.253906 160.558594 L 222.253906 160.558594 Z M 222.253906 130.558594 " clip-rule="nonzero"/></clipPath></defs><g clip-path="url(#5ff149af92)"><path fill="#004aad" d="M 182.671875 112.585938 L 167.320312 139.253906 L 220.289062 231.191406 L 147.332031 231.191406 L 136.082031 211.683594 L 186.515625 211.683594 L 144.800781 139.253906 L 182.671875 73.496094 L 220.832031 139.648438 L 209.546875 159.132812 Z M 182.671875 112.585938 " fill-opacity="1" fill-rule="nonzero"/></g><g clip-path="url(#cff61ebfb2)"><path fill="#000000" d="M 273.511719 231.191406 L 250.996094 231.191406 L 220.847656 178.875 L 232.101562 159.292969 Z M 273.511719 231.191406 " fill-opacity="1" fill-rule="nonzero"/></g><g clip-path="url(#34f06efab5)"><path fill="#000000" d="M 144.605469 178.847656 L 114.347656 231.191406 L 91.828125 231.191406 L 133.347656 159.273438 Z M 144.605469 178.847656 " fill-opacity="1" fill-rule="nonzero"/></g><g clip-path="url(#b8c8a955c2)"><path fill="#000000" d="M 237.183594 160.417969 C 237.183594 150.460938 232.207031 145.488281 222.253906 145.488281 C 232.207031 145.488281 237.183594 140.511719 237.183594 130.558594 C 237.183594 140.511719 242.15625 145.488281 252.113281 145.488281 C 242.15625 145.488281 237.183594 150.460938 237.183594 160.417969 Z M 237.183594 160.417969 " fill-opacity="1" fill-rule="nonzero"/></g></svg>